<svg width="21" height="20" viewBox="0 0 21 20" fill="none" xmlns="http://www.w3.org/2000/svg">
<path d="M18 15.8333H2.99996C2.77895 15.8333 2.56698 15.9211 2.4107 16.0774C2.25442 16.2337 2.16663 16.4457 2.16663 16.6667C2.16663 16.8877 2.25442 17.0996 2.4107 17.2559C2.56698 17.4122 2.77895 17.5 2.99996 17.5H18C18.221 17.5 18.4329 17.4122 18.5892 17.2559C18.7455 17.0996 18.8333 16.8877 18.8333 16.6667C18.8333 16.4457 18.7455 16.2337 18.5892 16.0774C18.4329 15.9211 18.221 15.8333 18 15.8333Z" fill="white"/>
<path d="M10.5 1.66667C10.279 1.66667 10.067 1.75446 9.91074 1.91074C9.75446 2.06702 9.66666 2.27899 9.66666 2.5V11.325L6.92499 8.575C6.76807 8.41808 6.55524 8.32992 6.33333 8.32992C6.11141 8.32992 5.89858 8.41808 5.74166 8.575C5.58474 8.73192 5.49658 8.94475 5.49658 9.16667C5.49658 9.38859 5.58474 9.60141 5.74166 9.75833L9.90833 13.925C9.98579 14.0031 10.078 14.0651 10.1795 14.1074C10.2811 14.1497 10.39 14.1715 10.5 14.1715C10.61 14.1715 10.7189 14.1497 10.8205 14.1074C10.922 14.0651 11.0142 14.0031 11.0917 13.925L15.2583 9.75833C15.336 9.68063 15.3977 9.58839 15.4397 9.48688C15.4818 9.38536 15.5034 9.27655 15.5034 9.16667C15.5034 9.05678 15.4818 8.94798 15.4397 8.84646C15.3977 8.74494 15.336 8.6527 15.2583 8.575C15.1806 8.4973 15.0884 8.43567 14.9869 8.39362C14.8853 8.35157 14.7765 8.32992 14.6667 8.32992C14.5568 8.32992 14.448 8.35157 14.3465 8.39362C14.2449 8.43567 14.1527 8.4973 14.075 8.575L11.3333 11.325V2.5C11.3333 2.27899 11.2455 2.06702 11.0892 1.91074C10.933 1.75446 10.721 1.66667 10.5 1.66667Z" fill="white"/>
</svg>
