<svg width="20" height="20" viewBox="0 0 20 20" fill="none" xmlns="http://www.w3.org/2000/svg">
<path d="M11.6714 12.2536C11.1739 12.5853 10.5959 12.7607 10 12.7607C9.40414 12.7607 8.82617 12.5853 8.32859 12.2536L0.133164 6.78984C0.0876953 6.75953 0.0433984 6.72793 0 6.69543V15.6484C0 16.6749 0.833008 17.4896 1.84113 17.4896H18.1588C19.1853 17.4896 20 16.6566 20 15.6484V6.69539C19.9565 6.72797 19.9121 6.75965 19.8665 6.79L11.6714 12.2536Z" fill="white"/>
<path d="M0.783203 5.81477L8.97863 11.2786C9.28887 11.4854 9.64441 11.5888 9.99996 11.5888C10.3555 11.5888 10.7111 11.4854 11.0214 11.2786L19.2168 5.81477C19.7072 5.48801 20 4.94113 20 4.3509C20 3.33602 19.1743 2.51039 18.1595 2.51039H1.84051C0.825664 2.51043 0 3.33606 0 4.35188C0 4.94113 0.292812 5.48801 0.783203 5.81477Z" fill="white"/>
</svg>
