<svg width="240" height="74" viewBox="0 0 240 74" fill="none" xmlns="http://www.w3.org/2000/svg">
<g clip-path="url(#clip0_2001_3844)">
<path d="M80.0774 48.1795V47.3268C80.0774 46.6291 80.0663 46.3412 80.0331 46.0422H81.7939C81.7643 46.367 81.7496 46.7435 81.7496 47.1717C81.7496 47.3194 81.7459 47.6516 81.7385 48.1684H82.3143C83.0563 48.1684 83.455 48.1463 83.898 48.0909V49.7963C83.4882 49.7631 83.012 49.7409 82.3365 49.7409H81.7274C81.7053 50.8705 81.6942 51.0698 81.6499 51.5128C81.5502 52.5759 81.3177 53.2625 80.8304 53.9713C80.3653 54.669 79.7119 55.2448 78.8481 55.6878C78.4937 55.876 78.228 55.9868 77.6078 56.2083C77.2977 55.566 77.1095 55.3002 76.5336 54.7022C77.6521 54.381 78.2501 54.0931 78.7817 53.6501C79.6012 52.9857 79.9223 52.2437 80.022 50.8927C80.0331 50.6601 80.0441 50.4054 80.0552 49.7409H77.2202V51.0255C77.2202 51.8783 77.2202 52.0001 77.2645 52.3655H75.4594C75.4926 52.0776 75.5148 51.6568 75.5148 51.0034V49.7409H74.9721C74.1527 49.7409 73.9312 49.752 73.4107 49.7963V48.0909C73.9423 48.1573 74.1637 48.1684 75.0054 48.1684H75.5148V47.3378C75.5148 46.7398 75.5037 46.3744 75.4594 46.02H77.2756C77.2202 46.4741 77.2202 46.5848 77.2202 47.3046V48.1684H80.0884L80.0774 48.1795Z" fill="#231815"/>
<path d="M87.2645 46.6181C88.7706 47.5261 89.435 48.0134 90.3653 48.8772L89.1914 50.4054C88.228 49.3755 87.2423 48.6114 86.1238 47.9913L87.2645 46.6181ZM86.1681 53.8384C87.2423 53.772 88.5713 53.4508 89.6344 52.9857C91.1183 52.3656 92.1482 51.4907 93.0563 50.1286C93.5768 49.3534 93.8979 48.7222 94.2302 47.8141C94.7728 48.4564 94.9832 48.6557 95.7141 49.1651C94.5624 51.6568 93.1892 53.1961 91.1626 54.2703C90.2324 54.7576 88.8924 55.2338 87.7739 55.4774C87.582 55.5143 87.4122 55.5476 87.2645 55.5771C86.9987 55.6325 86.9212 55.6546 86.6776 55.7432L86.1681 53.8274V53.8384Z" fill="#231815"/>
<path d="M102.58 46.1308C102.525 46.2083 102.414 46.4409 102.248 46.8063C102.148 47.0389 102.104 47.1385 101.971 47.3933L104.939 47.36C105.315 47.349 105.548 47.3157 105.758 47.2382L106.589 48.0577C106.478 48.2349 106.434 48.3456 106.29 48.7997C105.747 50.5826 104.939 52.1219 103.953 53.2515C102.923 54.4254 101.628 55.3556 99.8116 56.1862C99.435 55.4885 99.2357 55.2559 98.6377 54.7133C101.716 53.5173 103.499 51.7233 104.441 48.844L101.196 48.8772C100.498 49.9846 99.6122 50.9702 98.5602 51.7897C98.084 51.2028 97.8736 51.0367 97.198 50.6269C98.538 49.6967 99.435 48.6779 100.188 47.2382C100.52 46.6181 100.675 46.1862 100.731 45.7875L102.569 46.1419L102.58 46.1308Z" fill="#231815"/>
<path d="M117.01 55.9426C116.035 54.7355 114.895 53.617 113.621 52.6203C112.602 53.8274 111.096 54.957 109.357 55.8097C108.981 55.0898 108.826 54.8684 108.261 54.2925C109.269 53.8938 109.944 53.5284 110.797 52.8972C112.049 51.9891 113.056 50.8817 113.787 49.597C113.931 49.3423 114.13 48.9326 114.396 48.3567L111.063 48.4121C110.111 48.4343 109.9 48.4453 109.468 48.5118L109.446 46.7731C109.812 46.8285 110.133 46.8396 110.841 46.8396H111.063L114.961 46.7731C115.592 46.7731 115.648 46.762 115.924 46.6402L116.799 47.5483C116.655 47.7034 116.556 47.8584 116.423 48.1906C115.88 49.4642 115.36 50.3944 114.695 51.2914C116.168 52.3434 116.456 52.5982 118.405 54.4586L117.021 55.9426H117.01Z" fill="#231815"/>
<path d="M120.288 49.054C120.775 49.1205 120.997 49.1315 122.015 49.1315H127.519C128.184 49.1315 128.294 49.1205 128.627 49.0208L129.391 49.8624C129.269 50.0728 129.225 50.1836 129.07 50.5823C128.483 52.2655 127.608 53.5723 126.478 54.4914C125.703 55.1227 124.928 55.5214 123.366 56.1304C123.056 55.4549 122.901 55.2223 122.292 54.5468C123.677 54.1924 124.54 53.7938 125.382 53.1293C126.213 52.4649 126.733 51.7561 127.187 50.6487H121.993C121.052 50.6487 120.72 50.6598 120.288 50.7041V49.0429V49.054ZM121.24 46.2412C121.65 46.3076 122.027 46.3298 122.813 46.3298H126.556C127.486 46.3298 127.696 46.3187 128.106 46.2412V47.9023C127.719 47.858 127.541 47.8469 126.578 47.8469H122.78C122.049 47.8469 121.595 47.8691 121.24 47.9023V46.2412Z" fill="#231815"/>
<path d="M135.116 50.4606C135.083 50.6046 135.072 50.6378 134.917 51.3244C134.773 51.9888 134.474 52.8637 134.164 53.5946C133.854 54.3033 133.621 54.7242 133.134 55.4108C132.436 54.9567 132.204 54.8238 131.528 54.5691C132.336 53.5171 132.768 52.6644 133.145 51.3908C133.311 50.8482 133.377 50.4938 133.422 50.0619L135.116 50.4606ZM136.068 47.2491C136.068 46.6732 136.046 46.2967 136.002 45.8869H137.885C137.84 46.2745 137.818 46.6843 137.818 47.238V47.7031H140.232C141.185 47.7031 141.395 47.692 141.938 47.6256V49.331C141.462 49.2756 141.24 49.2646 140.266 49.2646H137.829V54.5802C137.829 55.2003 137.851 55.7762 137.885 56.1749H136.013C136.057 55.7319 136.08 55.2889 136.08 54.5802V49.2646H133.765C132.835 49.2646 132.613 49.2757 132.093 49.3199V47.6256C132.624 47.692 132.835 47.7031 133.765 47.7031H136.08V47.2491H136.068ZM140.387 50.0398C140.465 50.4495 140.565 50.7485 140.775 51.3465C141.284 52.7529 141.716 53.6057 142.359 54.4916C141.517 54.9346 141.34 55.0342 140.764 55.4218C139.856 53.8714 139.446 52.8637 138.892 50.8371C138.859 50.6931 138.837 50.6267 138.76 50.4606L140.387 50.0398ZM140.299 45.6987C140.72 46.2967 140.841 46.5292 141.129 47.1937L140.088 47.5591C139.834 46.9168 139.657 46.5846 139.28 46.042L140.299 45.7098V45.6987ZM141.694 45.2889C142.104 45.8427 142.336 46.2524 142.547 46.784L141.561 47.1605C141.295 46.5182 141.107 46.1749 140.731 45.6212L141.694 45.3V45.2889Z" fill="#231815"/>
<path d="M79.6124 40.0839V21.6011H72.6689V18.146H90.7198V21.6011H83.7431V40.0839H79.6124Z" fill="#231815"/>
<path d="M93.145 40.0835V18.1565H97.1207V27.0713C97.7851 26.1853 98.516 25.543 99.3023 25.1444C100.089 24.7457 101.008 24.5574 102.06 24.5574C103.898 24.5574 105.293 25.0336 106.235 25.986C107.176 26.9384 107.641 28.367 107.641 30.2939V40.0945H103.666V31.6006C103.666 29.862 103.389 28.7103 102.846 28.1455C102.303 27.5807 101.539 27.2928 100.576 27.2928C99.5016 27.2928 98.66 27.7247 98.0398 28.5774C97.4197 29.4412 97.1096 30.6261 97.1096 32.1433V40.0945H93.134L93.145 40.0835Z" fill="#231815"/>
<path d="M115.736 40.3939C114.075 40.3939 112.769 39.9842 111.827 39.1647C110.875 38.3452 110.399 37.2046 110.399 35.7538C110.399 34.0152 111.119 32.7195 112.547 31.8668C113.987 31.0141 116.168 30.5933 119.103 30.5933H120.62V29.9288C120.62 28.7549 120.421 27.9133 120.011 27.3928C119.601 26.8723 118.959 26.6176 118.073 26.6176C117.187 26.6176 116.512 26.8502 116.135 27.3042C115.748 27.7583 115.548 28.3452 115.526 29.0761H111.462C111.484 27.5589 112.06 26.3961 113.2 25.5877C114.341 24.7793 115.958 24.3696 118.04 24.3696C120.388 24.3696 122.049 24.8125 123.034 25.7095C124.02 26.5955 124.507 28.1016 124.507 30.2278V34.7793C124.507 36.6176 124.552 37.9244 124.629 38.7106C124.707 39.4858 124.762 39.951 124.784 40.0949H121.019C120.82 39.4637 120.698 38.766 120.653 37.9687C120.089 38.8435 119.424 39.4637 118.649 39.8291C117.885 40.2057 116.91 40.3939 115.736 40.3939ZM117.043 37.9687C118.394 37.9687 119.336 37.5146 119.845 36.6176C120.366 35.7206 120.62 34.5357 120.62 33.085V32.5645H119.712C117.896 32.5645 116.545 32.8081 115.659 33.3064C114.784 33.8048 114.341 34.5467 114.341 35.5324C114.341 36.2854 114.607 36.8723 115.127 37.3042C115.648 37.7361 116.29 37.9576 117.043 37.9576V37.9687Z" fill="#231815"/>
<path d="M128.239 40.0838V28.0129C128.239 27.282 128.228 26.6508 128.195 26.1192C128.162 25.5876 128.14 25.2333 128.117 25.0672V24.7903H132.093C132.115 25.5766 132.137 26.3628 132.16 27.1602C132.824 26.2521 133.555 25.5876 134.363 25.1779C135.161 24.7681 136.102 24.5577 137.198 24.5577C139.037 24.5577 140.421 25.0339 141.351 25.9974C142.281 26.9608 142.746 28.3894 142.746 30.2942V40.0948H138.738V31.8999C138.738 29.9619 138.472 28.6995 137.951 28.1347C137.42 27.5699 136.667 27.282 135.681 27.282C134.585 27.282 133.743 27.725 133.134 28.5998C132.525 29.4747 132.226 30.7039 132.226 32.2875V40.0838H128.25H128.239Z" fill="#231815"/>
<path d="M146.589 40.0835V18.1565H150.565V40.0835H146.589ZM157.143 40.0835L150.587 31.4677L156.744 24.7678H161.595L155.161 31.3238L162.259 40.0945H157.132L157.143 40.0835Z" fill="#231815"/>
<path d="M169.767 40.4493C167.608 40.4493 165.958 40.0174 164.839 39.1426C163.721 38.2788 163.156 36.9831 163.156 35.2555H167.187C167.209 36.2301 167.453 36.9499 167.918 37.4039C168.383 37.869 169.036 38.1016 169.889 38.1016C170.742 38.1016 171.451 37.8912 171.971 37.4815C172.492 37.0717 172.746 36.5512 172.746 35.9532C172.746 35.2666 172.425 34.7572 171.794 34.425C171.152 34.0927 170.133 33.7384 168.715 33.3619C167.298 32.9853 166.235 32.6088 165.526 32.2434C164.817 31.8668 164.341 31.446 164.086 30.9698C163.832 30.4936 163.688 30.0728 163.643 29.6963C163.599 29.3198 163.588 29.0872 163.588 28.9875C163.588 27.5368 164.153 26.4073 165.271 25.6099C166.39 24.8126 167.951 24.4139 169.956 24.4139C171.96 24.4139 173.499 24.8236 174.563 25.6431C175.637 26.4626 176.224 27.6697 176.323 29.2644H172.414C172.37 28.456 172.137 27.8248 171.705 27.3818C171.273 26.9388 170.653 26.7173 169.867 26.7173C169.081 26.7173 168.516 26.8945 168.062 27.2378C167.608 27.5811 167.375 28.0241 167.375 28.5778C167.375 29.1869 167.652 29.6409 168.195 29.9621C168.737 30.2722 169.845 30.6376 171.506 31.0584C173.167 31.4682 174.297 31.8779 174.906 32.2544C175.515 32.642 175.969 33.085 176.29 33.6055C176.6 34.126 176.755 34.7683 176.755 35.5656C176.755 37.1049 176.146 38.3009 174.917 39.1758C173.688 40.0507 171.982 40.4826 169.778 40.4826L169.767 40.4493Z" fill="#231815"/>
<path d="M180.111 40.0835V18.1565H184.208V36.6615H194.319V40.0835H180.111Z" fill="#231815"/>
<path d="M201.34 40.3939C199.679 40.3939 198.372 39.9842 197.431 39.1647C196.479 38.3452 196.002 37.2046 196.002 35.7538C196.002 34.0152 196.722 32.7195 198.151 31.8668C199.59 31.0141 201.772 30.5933 204.707 30.5933H206.224V29.9288C206.224 28.7549 206.024 27.9133 205.615 27.3928C205.205 26.8723 204.563 26.6176 203.677 26.6176C202.791 26.6176 202.115 26.8502 201.739 27.3042C201.351 27.7583 201.152 28.3452 201.13 29.0761H197.065C197.088 27.5589 197.663 26.3961 198.804 25.5877C199.945 24.7793 201.562 24.3696 203.644 24.3696C205.991 24.3696 207.652 24.8125 208.638 25.7095C209.624 26.5955 210.111 28.1016 210.111 30.2278V34.7793C210.111 36.6176 210.155 37.9244 210.233 38.7106C210.31 39.4858 210.366 39.951 210.388 40.0949H206.622C206.423 39.4637 206.301 38.766 206.257 37.9687C205.692 38.8435 205.028 39.4637 204.253 39.8291C203.488 40.2057 202.514 40.3939 201.34 40.3939ZM202.647 37.9687C203.998 37.9687 204.939 37.5146 205.449 36.6176C205.969 35.7206 206.224 34.5357 206.224 33.085V32.5645H205.316C203.5 32.5645 202.148 32.8081 201.263 33.3064C200.377 33.8048 199.945 34.5467 199.945 35.5324C199.945 36.2854 200.211 36.8723 200.731 37.3042C201.251 37.7361 201.894 37.9576 202.647 37.9576V37.9687Z" fill="#231815"/>
<path d="M222.602 40.3938C221.572 40.3938 220.686 40.1945 219.945 39.8069C219.203 39.4082 218.494 38.7991 217.807 37.9686L217.719 40.0948H213.776C213.832 39.3639 213.876 38.633 213.887 37.8911C213.887 37.1491 213.898 36.4957 213.898 35.9088V18.1679H217.874V27.0605C218.538 26.1524 219.291 25.488 220.122 25.0782C220.952 24.6685 221.871 24.458 222.879 24.458C224.474 24.458 225.758 24.8346 226.733 25.5765C227.708 26.3296 228.405 27.293 228.826 28.478C229.247 29.6629 229.468 30.9254 229.468 32.2543C229.468 34.2809 229.081 35.9198 228.317 37.1823C227.552 38.4448 226.667 39.2975 225.659 39.7404C224.662 40.1834 223.643 40.4049 222.613 40.4049L222.602 40.3938ZM221.451 37.7582C222.503 37.7582 223.333 37.4481 223.942 36.8279C224.551 36.2078 224.928 35.4769 225.094 34.6131C225.26 33.7493 225.338 32.9852 225.338 32.3207C225.338 30.4824 224.994 29.1314 224.319 28.2897C223.643 27.437 222.78 27.0162 221.727 27.0162C220.775 27.0162 220 27.282 219.402 27.8246C218.804 28.3562 218.394 29.0538 218.162 29.9066C217.929 30.7593 217.807 31.5898 217.807 32.4204C217.807 33.9597 218.106 35.2332 218.715 36.241C219.324 37.2487 220.232 37.7582 221.44 37.7582H221.451Z" fill="#231815"/>
<path d="M60.8636 34.6359C62.1704 34.6359 63.2224 35.6991 63.2224 36.9947C63.2224 38.2904 62.1593 39.3535 60.8636 39.3535C59.5679 39.3535 58.5048 38.3015 58.5048 36.9947C58.5048 35.688 59.5568 34.6359 60.8636 34.6359Z" fill="#F6AB00"/>
<path d="M54.7618 35.234C55.7363 35.234 56.5225 36.0203 56.5225 36.9948C56.5225 37.9693 55.7363 38.7556 54.7618 38.7556C53.7872 38.7556 53.001 37.9693 53.001 36.9948C53.001 36.0203 53.7872 35.234 54.7618 35.234Z" fill="#ED6D1F"/>
<path d="M49.6456 35.7434C50.3432 35.7434 50.908 36.3081 50.908 36.9947C50.908 37.6813 50.3432 38.2461 49.6456 38.2461C48.9479 38.2461 48.3942 37.6813 48.3942 36.9947C48.3942 36.3081 48.959 35.7434 49.6456 35.7434Z" fill="#E6002D"/>
<path d="M59.4352 28.5117C60.6976 28.1795 61.9933 28.9215 62.3255 30.1839C62.6578 31.4464 61.9158 32.7421 60.6533 33.0743C59.3909 33.4065 58.1063 32.6646 57.763 31.4021C57.4197 30.1397 58.1727 28.844 59.4241 28.5117H59.4352Z" fill="#F6AB00"/>
<path d="M53.6986 30.6712C54.6399 30.4165 55.6034 30.9813 55.8581 31.9115C56.1128 32.8418 55.548 33.8163 54.6067 34.071C53.6654 34.3257 52.702 33.7609 52.4583 32.8307C52.2147 31.9005 52.7573 30.9259 53.6986 30.6712Z" fill="#ED6D1F"/>
<path d="M48.8815 32.4874C49.557 32.3102 50.2436 32.7089 50.4208 33.3733C50.598 34.0378 50.1993 34.7354 49.5349 34.9126C48.8704 35.0898 48.1728 34.6911 47.9956 34.0267C47.8184 33.3622 48.217 32.6646 48.8815 32.4874Z" fill="#E6002D"/>
<path d="M56.4672 22.9639C57.5968 22.3105 59.0475 22.6981 59.6898 23.8277C60.3321 24.9572 59.9556 26.3969 58.826 27.0503C57.6965 27.7036 56.2568 27.316 55.6034 26.1865C54.9501 25.0569 55.3377 23.6173 56.4672 22.9639Z" fill="#F6AB00"/>
<path d="M51.4837 26.5296C52.3253 26.0424 53.3995 26.3303 53.8868 27.1719C54.374 28.0136 54.0861 29.0878 53.2445 29.575C52.4028 30.0623 51.3286 29.7744 50.8414 28.9327C50.3541 28.0911 50.642 27.0169 51.4837 26.5296Z" fill="#ED6D1F"/>
<path d="M47.3087 29.5307C47.9067 29.1874 48.6819 29.3867 49.0252 29.9958C49.3685 30.6049 49.1692 31.369 48.5601 31.7123C47.951 32.0556 47.1869 31.8563 46.8436 31.2472C46.5003 30.6381 46.6996 29.874 47.2977 29.5307H47.3087Z" fill="#E6002D"/>
<path d="M52.1707 18.3676C53.0898 17.4485 54.5849 17.4485 55.5151 18.3676C56.4453 19.2868 56.4342 20.7818 55.5151 21.712C54.5959 22.6422 53.1009 22.6312 52.1817 21.712C51.2626 20.7929 51.2626 19.2978 52.1817 18.3787L52.1707 18.3676Z" fill="#F6AB00"/>
<path d="M48.2836 23.1074C48.9702 22.4208 50.0887 22.4208 50.7753 23.1074C51.4619 23.794 51.4619 24.9125 50.7753 25.5991C50.0887 26.2857 48.9702 26.2857 48.2836 25.5991C47.597 24.9125 47.597 23.794 48.2836 23.1074Z" fill="#ED6D1F"/>
<path d="M45.0168 27.0831C45.504 26.5958 46.3014 26.5958 46.7997 27.0831C47.298 27.5704 47.287 28.3677 46.7997 28.855C46.3124 29.3422 45.5151 29.3422 45.0278 28.855C44.5406 28.3677 44.5406 27.5704 45.0278 27.0831H45.0168Z" fill="#E6002D"/>
<path d="M46.8328 15.0453C47.4861 13.9158 48.9258 13.5282 50.0554 14.1815C51.1849 14.8349 51.5725 16.2746 50.9191 17.4041C50.2658 18.5337 48.8261 18.9213 47.6965 18.2679C46.567 17.6145 46.1794 16.1749 46.8328 15.0453Z" fill="#F6AB00"/>
<path d="M44.2969 20.638C44.7842 19.7963 45.8583 19.5084 46.7 19.9957C47.5416 20.4829 47.8296 21.5571 47.3423 22.3988C46.855 23.2404 45.7808 23.5283 44.9392 23.0411C44.0976 22.5538 43.8096 21.4796 44.2969 20.638Z" fill="#ED6D1F"/>
<path d="M42.1705 25.3223C42.5138 24.7243 43.289 24.5139 43.887 24.8572C44.485 25.2005 44.6954 25.9757 44.3411 26.5737C43.9867 27.1717 43.2226 27.3821 42.6246 27.0277C42.0265 26.6733 41.8161 25.9092 42.1594 25.3112L42.1705 25.3223Z" fill="#E6002D"/>
<path d="M40.8086 13.2292C41.1408 11.9668 42.4476 11.2248 43.699 11.557C44.9503 11.8892 45.7034 13.1849 45.3712 14.4474C45.0389 15.7098 43.7433 16.4518 42.4808 16.1196C41.2183 15.7874 40.4764 14.4917 40.8086 13.2292Z" fill="#F6AB00"/>
<path d="M39.8118 19.2759C40.0665 18.3346 41.03 17.7809 41.9713 18.0245C42.9126 18.2681 43.4663 19.2426 43.2116 20.184C42.9569 21.1253 41.9934 21.679 41.0521 21.4243C40.1108 21.1696 39.5571 20.2061 39.8007 19.2648L39.8118 19.2759Z" fill="#ED6D1F"/>
<path d="M38.9702 24.3476C39.1474 23.672 39.8451 23.2734 40.5096 23.4616C41.174 23.6499 41.5727 24.3254 41.3955 25.0009C41.2183 25.6765 40.5317 26.0641 39.8562 25.8869C39.1806 25.7097 38.782 25.0231 38.9702 24.3476Z" fill="#E6002D"/>
<path d="M34.5182 13.0191C34.5182 11.7123 35.5813 10.6603 36.877 10.6603C38.1726 10.6603 39.2358 11.7234 39.2358 13.0191C39.2358 14.3148 38.1837 15.3779 36.877 15.3779C35.5702 15.3779 34.5182 14.3258 34.5182 13.0191Z" fill="#F6AB00"/>
<path d="M35.1162 19.1209C35.1162 18.1464 35.9025 17.3601 36.877 17.3601C37.8515 17.3601 38.6378 18.1464 38.6378 19.1209C38.6378 20.0955 37.8515 20.8817 36.877 20.8817C35.9025 20.8817 35.1162 20.0955 35.1162 19.1209Z" fill="#ED6D1F"/>
<path d="M35.6256 24.2376C35.6256 23.5399 36.1904 22.9751 36.877 22.9751C37.5636 22.9751 38.1284 23.5399 38.1284 24.2376C38.1284 24.9352 37.5636 25.4889 36.877 25.4889C36.1904 25.4889 35.6256 24.9242 35.6256 24.2376Z" fill="#E6002D"/>
<path d="M28.3941 14.4475C28.0619 13.185 28.8039 11.8893 30.0663 11.5571C31.3288 11.2249 32.6245 11.9668 32.9567 13.2293C33.2889 14.4918 32.5469 15.7764 31.2845 16.1197C30.022 16.463 28.7263 15.7099 28.3941 14.4585V14.4475Z" fill="#F6AB00"/>
<path d="M30.5537 20.1839C30.299 19.2426 30.8638 18.2792 31.794 18.0245C32.7242 17.7698 33.6988 18.3345 33.9535 19.2758C34.2082 20.2172 33.6434 21.1806 32.7132 21.4242C31.7829 21.6679 30.8084 21.1252 30.5537 20.1839Z" fill="#ED6D1F"/>
<path d="M32.3698 25.0012C32.1927 24.3257 32.5913 23.6391 33.2558 23.4619C33.9202 23.2847 34.6179 23.6834 34.7951 24.3479C34.9723 25.0123 34.5736 25.71 33.9092 25.8872C33.2447 26.0644 32.547 25.6657 32.3698 25.0012Z" fill="#E6002D"/>
<path d="M22.846 17.4155C22.1926 16.2859 22.5802 14.8352 23.7098 14.1929C24.8394 13.5506 26.279 13.9271 26.9324 15.0567C27.5858 16.1863 27.1982 17.6259 26.0686 18.2793C24.939 18.9327 23.4994 18.5451 22.846 17.4155Z" fill="#F6AB00"/>
<path d="M26.4121 22.3989C25.9248 21.5572 26.2128 20.483 27.0544 19.9958C27.8961 19.5085 28.9703 19.7964 29.4575 20.6381C29.9448 21.4797 29.6569 22.5539 28.8152 23.0412C27.9736 23.5284 26.8994 23.2405 26.4121 22.3989Z" fill="#ED6D1F"/>
<path d="M29.4132 26.574C29.0699 25.976 29.2692 25.2008 29.8783 24.8575C30.4874 24.5142 31.2515 24.7136 31.5948 25.3226C31.9381 25.9317 31.7388 26.6958 31.1297 27.0391C30.5206 27.3824 29.7565 27.1831 29.4132 26.5851V26.574Z" fill="#E6002D"/>
<path d="M18.2502 21.7126C17.331 20.7934 17.331 19.2984 18.2502 18.3682C19.1693 17.4379 20.6643 17.449 21.5946 18.3682C22.5248 19.2873 22.5137 20.7823 21.5946 21.7015C20.6754 22.6207 19.1804 22.6207 18.2612 21.7015L18.2502 21.7126Z" fill="#F6AB00"/>
<path d="M22.9898 25.5997C22.3032 24.9131 22.3032 23.7946 22.9898 23.108C23.6764 22.4214 24.7949 22.4214 25.4815 23.108C26.1681 23.7946 26.1681 24.9131 25.4815 25.5997C24.7949 26.2863 23.6764 26.2863 22.9898 25.5997Z" fill="#ED6D1F"/>
<path d="M26.9656 28.8666C26.4783 28.3793 26.4783 27.582 26.9656 27.0836C27.4528 26.5853 28.2502 26.5963 28.7374 27.0836C29.2247 27.5709 29.2247 28.3682 28.7374 28.8555C28.2502 29.3427 27.4528 29.3427 26.9656 28.8555V28.8666Z" fill="#E6002D"/>
<path d="M14.928 27.05C13.7984 26.3966 13.4109 24.957 14.0642 23.8274C14.7176 22.6979 16.1573 22.3103 17.2868 22.9636C18.4164 23.617 18.804 25.0567 18.1506 26.1862C17.4972 27.3158 16.0576 27.7034 14.928 27.05Z" fill="#F6AB00"/>
<path d="M20.5205 29.5864C19.6788 29.0991 19.3909 28.0249 19.8782 27.1833C20.3654 26.3416 21.4396 26.0537 22.2813 26.541C23.1229 27.0282 23.4108 28.1024 22.9236 28.9441C22.4363 29.7857 21.3621 30.0736 20.5205 29.5864Z" fill="#ED6D1F"/>
<path d="M25.205 31.7012C24.607 31.3579 24.3966 30.5827 24.7399 29.9847C25.0832 29.3867 25.8584 29.1762 26.4564 29.5306C27.0544 29.885 27.2648 30.6491 26.9105 31.2471C26.5561 31.8451 25.792 32.0555 25.194 31.7122L25.205 31.7012Z" fill="#E6002D"/>
<path d="M13.1119 33.0747C11.8495 32.7425 11.1075 31.4357 11.4397 30.1843C11.7719 28.9329 13.0676 28.1799 14.3301 28.5121C15.5925 28.8443 16.3345 30.14 16.0023 31.4025C15.6701 32.6649 14.3744 33.4069 13.1119 33.0747Z" fill="#F6AB00"/>
<path d="M19.1584 34.0713C18.2171 33.8166 17.6633 32.8532 17.907 31.9118C18.1506 30.9705 19.1251 30.4168 20.0664 30.6715C21.0078 30.9262 21.5615 31.8897 21.3068 32.831C21.052 33.7723 20.0886 34.326 19.1473 34.0824L19.1584 34.0713Z" fill="#ED6D1F"/>
<path d="M24.2306 34.9133C23.5551 34.7361 23.1564 34.0384 23.3447 33.374C23.5329 32.7095 24.2085 32.3108 24.884 32.488C25.5595 32.6652 25.9471 33.3518 25.7699 34.0273C25.5927 34.7029 24.9061 35.1015 24.2306 34.9133Z" fill="#E6002D"/>
<path d="M12.9014 39.3648C11.5947 39.3648 10.5426 38.3016 10.5426 37.006C10.5426 35.7103 11.6057 34.6471 12.9014 34.6471C14.1971 34.6471 15.2602 35.6992 15.2602 37.006C15.2602 38.3127 14.2082 39.3648 12.9014 39.3648Z" fill="#F6AB00"/>
<path d="M19.0034 38.7552C18.0289 38.7552 17.2426 37.969 17.2426 36.9944C17.2426 36.0199 18.0289 35.2336 19.0034 35.2336C19.978 35.2336 20.7642 36.0199 20.7642 36.9944C20.7642 37.969 19.978 38.7552 19.0034 38.7552Z" fill="#ED6D1F"/>
<path d="M24.1198 38.2571C23.4221 38.2571 22.8573 37.6923 22.8573 37.0057C22.8573 36.3191 23.4221 35.7543 24.1198 35.7543C24.8175 35.7543 25.3712 36.3191 25.3712 37.0057C25.3712 37.7034 24.8064 38.2571 24.1198 38.2571Z" fill="#E6002D"/>
<path d="M14.3301 45.4886C13.0677 45.8208 11.772 45.0789 11.4398 43.8164C11.1076 42.5539 11.8495 41.2583 13.112 40.926C14.3744 40.5938 15.659 41.3358 16.0023 42.5982C16.3456 43.8607 15.5926 45.1564 14.3412 45.4886H14.3301Z" fill="#F6AB00"/>
<path d="M20.0667 43.329C19.1254 43.5838 18.1619 43.019 17.9072 42.0887C17.6525 41.1585 18.2173 40.184 19.1586 39.9293C20.0999 39.6746 21.0634 40.2393 21.307 41.1696C21.5506 42.0998 21.008 43.0743 20.0667 43.329Z" fill="#ED6D1F"/>
<path d="M24.8837 41.513C24.2082 41.6901 23.5216 41.2915 23.3444 40.627C23.1672 39.9626 23.5659 39.2649 24.2304 39.0877C24.8948 38.9105 25.5925 39.3092 25.7697 39.9736C25.9469 40.6381 25.5482 41.3358 24.8837 41.513Z" fill="#E6002D"/>
<path d="M17.2978 51.0365C16.1682 51.6898 14.7175 51.3022 14.0752 50.1727C13.4329 49.0431 13.8094 47.6035 14.939 46.9501C16.0685 46.2967 17.5082 46.6843 18.1616 47.8139C18.8149 48.9434 18.4273 50.3831 17.2978 51.0365Z" fill="#F6AB00"/>
<path d="M22.2811 47.4596C21.4395 47.9469 20.3653 47.6589 19.878 46.8173C19.3907 45.9757 19.6787 44.9015 20.5203 44.4142C21.3619 43.9269 22.4361 44.2149 22.9234 45.0565C23.4107 45.8982 23.1227 46.9723 22.2811 47.4596Z" fill="#ED6D1F"/>
<path d="M26.4562 44.4697C25.8582 44.813 25.083 44.6137 24.7397 44.0046C24.3964 43.3955 24.5958 42.6314 25.2049 42.2881C25.8139 41.9448 26.5781 42.1441 26.9214 42.7532C27.2647 43.3623 27.0653 44.1264 26.4673 44.4697H26.4562Z" fill="#E6002D"/>
<path d="M21.5947 55.6215C20.6755 56.5406 19.1805 56.5406 18.2503 55.6215C17.32 54.7023 17.3311 53.2073 18.2503 52.2771C19.1694 51.3468 20.6645 51.3579 21.5836 52.2771C22.5028 53.1962 22.5028 54.6912 21.5836 55.6104L21.5947 55.6215Z" fill="#F6AB00"/>
<path d="M25.4816 50.8818C24.795 51.5684 23.6765 51.5684 22.9899 50.8818C22.3033 50.1952 22.3033 49.0767 22.9899 48.3901C23.6765 47.7035 24.795 47.7035 25.4816 48.3901C26.1682 49.0767 26.1682 50.1952 25.4816 50.8818Z" fill="#ED6D1F"/>
<path d="M28.7487 46.906C28.2615 47.3933 27.4641 47.3933 26.9658 46.906C26.4674 46.4187 26.4785 45.6214 26.9658 45.1341C27.453 44.6469 28.2504 44.6469 28.7377 45.1341C29.2249 45.6214 29.2249 46.4187 28.7377 46.906H28.7487Z" fill="#E6002D"/>
<path d="M26.9325 58.9437C26.2791 60.0733 24.8395 60.4609 23.7099 59.8075C22.5803 59.1541 22.1927 57.7145 22.8461 56.5849C23.4995 55.4553 24.9391 55.0677 26.0687 55.7211C27.1983 56.3745 27.5859 57.8141 26.9325 58.9437Z" fill="#F6AB00"/>
<path d="M29.4683 53.3627C28.9811 54.2043 27.9069 54.4923 27.0652 54.005C26.2236 53.5177 25.9357 52.4435 26.4229 51.6019C26.9102 50.7603 27.9844 50.4723 28.826 50.9596C29.6677 51.4468 29.9556 52.521 29.4683 53.3627Z" fill="#ED6D1F"/>
<path d="M31.5837 48.6781C31.2404 49.2761 30.4652 49.4865 29.8672 49.1432C29.2692 48.7999 29.0587 48.0247 29.4131 47.4267C29.7675 46.8287 30.5316 46.6183 31.1296 46.9727C31.7276 47.3271 31.938 48.0912 31.5947 48.6892L31.5837 48.6781Z" fill="#E6002D"/>
<path d="M32.9567 60.771C32.6245 62.0334 31.3177 62.7754 30.0663 62.4432C28.815 62.111 28.0619 60.8153 28.3941 59.5528C28.7264 58.2904 30.022 57.5484 31.2845 57.8806C32.547 58.2128 33.2889 59.5085 32.9567 60.771Z" fill="#F6AB00"/>
<path d="M33.9535 54.7244C33.6988 55.6657 32.7353 56.2194 31.794 55.9758C30.8527 55.7322 30.299 54.7577 30.5537 53.8163C30.8084 52.875 31.7719 52.3213 32.7132 52.576C33.6545 52.8307 34.2082 53.7942 33.9646 54.7355L33.9535 54.7244Z" fill="#ED6D1F"/>
<path d="M34.7949 49.6525C34.6177 50.328 33.9201 50.7267 33.2556 50.5384C32.5912 50.3502 32.1925 49.6746 32.3697 48.9991C32.5469 48.3236 33.2335 47.936 33.909 48.1132C34.5845 48.2904 34.9832 48.977 34.7949 49.6525Z" fill="#E6002D"/>
<path d="M39.247 60.9814C39.247 62.2882 38.1838 63.3402 36.8882 63.3402C35.5925 63.3402 34.5294 62.2771 34.5294 60.9814C34.5294 59.6858 35.5814 58.6226 36.8882 58.6226C38.1949 58.6226 39.247 59.6747 39.247 60.9814Z" fill="#F6AB00"/>
<path d="M38.6379 54.8799C38.6379 55.8544 37.8516 56.6407 36.8771 56.6407C35.9026 56.6407 35.1163 55.8544 35.1163 54.8799C35.1163 53.9053 35.9026 53.1191 36.8771 53.1191C37.8516 53.1191 38.6379 53.9053 38.6379 54.8799Z" fill="#ED6D1F"/>
<path d="M38.1395 49.7634C38.1395 50.4611 37.5748 51.0259 36.8881 51.0259C36.2015 51.0259 35.6368 50.4611 35.6368 49.7634C35.6368 49.0657 36.2015 48.512 36.8881 48.512C37.5748 48.512 38.1395 49.0768 38.1395 49.7634Z" fill="#E6002D"/>
<path d="M45.3711 59.5535C45.7034 60.816 44.9614 62.1117 43.6989 62.4439C42.4365 62.7761 41.1408 62.0341 40.8086 60.7717C40.4763 59.5092 41.2183 58.2246 42.4808 57.8813C43.7432 57.538 45.0389 58.2911 45.3711 59.5424V59.5535Z" fill="#F6AB00"/>
<path d="M43.2116 53.817C43.4663 54.7583 42.9015 55.7217 41.9712 55.9765C41.041 56.2312 40.0665 55.6664 39.8118 54.7251C39.5571 53.7838 40.1219 52.8203 41.0521 52.5767C41.9823 52.333 42.9569 52.8757 43.2116 53.817Z" fill="#ED6D1F"/>
<path d="M41.3954 48.9994C41.5726 49.6749 41.1739 50.3615 40.5095 50.5387C39.845 50.7159 39.1474 50.3172 38.9702 49.6528C38.793 48.9883 39.1917 48.2907 39.8561 48.1135C40.5206 47.9363 41.2182 48.335 41.3954 48.9994Z" fill="#E6002D"/>
<path d="M50.9192 56.5848C51.5726 57.7143 51.185 59.165 50.0555 59.8073C48.9259 60.4496 47.4862 60.0731 46.8329 58.9436C46.1795 57.814 46.5671 56.3743 47.6967 55.721C48.8262 55.0676 50.2659 55.4552 50.9192 56.5848Z" fill="#F6AB00"/>
<path d="M47.3421 51.6012C47.8294 52.4428 47.5415 53.517 46.6998 54.0043C45.8582 54.4916 44.784 54.2036 44.2967 53.362C43.8095 52.5204 44.0974 51.4462 44.939 50.9589C45.7807 50.4716 46.8549 50.7596 47.3421 51.6012Z" fill="#ED6D1F"/>
<path d="M44.3522 47.4265C44.6955 48.0245 44.4962 48.7997 43.8871 49.143C43.278 49.4863 42.5139 49.287 42.1706 48.6779C41.8273 48.0688 42.0266 47.3047 42.6357 46.9614C43.2448 46.6181 44.0089 46.8174 44.3522 47.4154V47.4265Z" fill="#E6002D"/>
<path d="M55.504 52.2885C56.4232 53.2076 56.4232 54.7026 55.504 55.6329C54.5848 56.5631 53.0898 56.552 52.1596 55.6329C51.2294 54.7137 51.2404 53.2187 52.1596 52.2995C53.0787 51.3804 54.5738 51.3804 55.4929 52.2995L55.504 52.2885Z" fill="#F6AB00"/>
<path d="M50.7641 48.4016C51.4507 49.0882 51.4507 50.2067 50.7641 50.8933C50.0775 51.5799 48.959 51.5799 48.2724 50.8933C47.5858 50.2067 47.5858 49.0882 48.2724 48.4016C48.959 47.715 50.0775 47.715 50.7641 48.4016Z" fill="#ED6D1F"/>
<path d="M46.7885 45.1343C47.2758 45.6216 47.2758 46.4189 46.7885 46.9172C46.3013 47.4156 45.5039 47.4045 45.0166 46.9172C44.5294 46.43 44.5294 45.6326 45.0166 45.1454C45.5039 44.6581 46.3013 44.6581 46.7885 45.1454V45.1343Z" fill="#E6002D"/>
<path d="M58.8261 46.9502C59.9557 47.6036 60.3433 49.0432 59.6899 50.1728C59.0365 51.3024 57.5969 51.69 56.4673 51.0366C55.3378 50.3832 54.9502 48.9436 55.6035 47.814C56.2569 46.6844 57.6966 46.2968 58.8261 46.9502Z" fill="#F6AB00"/>
<path d="M53.2446 44.4143C54.0862 44.9016 54.3741 45.9758 53.8869 46.8174C53.3996 47.6591 52.3254 47.947 51.4838 47.4597C50.6421 46.9725 50.3542 45.8983 50.8415 45.0567C51.3287 44.215 52.4029 43.9271 53.2446 44.4143Z" fill="#ED6D1F"/>
<path d="M48.5603 42.288C49.1583 42.6313 49.3687 43.4065 49.0254 44.0045C48.6821 44.6025 47.9069 44.8129 47.3089 44.4585C46.7109 44.1042 46.5005 43.3401 46.8549 42.742C47.2092 42.144 47.9734 41.9336 48.5714 42.2769L48.5603 42.288Z" fill="#E6002D"/>
<path d="M60.6532 40.9261C61.9157 41.2583 62.6576 42.5651 62.3254 43.8165C61.9932 45.0679 60.6975 45.8209 59.435 45.4887C58.1726 45.1565 57.4306 43.8608 57.7628 42.5983C58.0951 41.3359 59.3907 40.5939 60.6532 40.9261Z" fill="#F6AB00"/>
<path d="M54.6066 39.9296C55.548 40.1843 56.1017 41.1477 55.858 42.089C55.6144 43.0303 54.6399 43.5841 53.6986 43.3293C52.7573 43.0746 52.2035 42.1112 52.4583 41.1699C52.713 40.2286 53.6764 39.6749 54.6177 39.9185L54.6066 39.9296Z" fill="#ED6D1F"/>
<path d="M49.5348 39.0878C50.2103 39.265 50.609 39.9627 50.4207 40.6271C50.2324 41.2916 49.5569 41.6902 48.8814 41.5131C48.2059 41.3359 47.8183 40.6493 47.9955 39.9737C48.1727 39.2982 48.8593 38.8995 49.5348 39.0878Z" fill="#E6002D"/>
</g>
<defs>
<clipPath id="clip0_2001_3844">
<rect width="240" height="73.7652" fill="white" transform="translate(0 0.117386)"/>
</clipPath>
</defs>
</svg>
